<svg xmlns="http://www.w3.org/2000/svg" width="128.887" height="28.45" viewBox="0 0 128.887 28.45">
  <g id="Слой_x0020_1" transform="translate(-1604 -7576)">
    <g id="_706028490384" transform="translate(1604 7576)">
      <path id="Path_1" data-name="Path 1" d="M21970,7603.755h1.318a60.935,60.935,0,0,1-.35-7.146v-18.838l11.8,26.68h.871l11.1-26.787v18.945a70.481,70.481,0,0,1-.311,7.151l5.377,0a68.565,68.565,0,0,1-.348-7.146v-13.462a68.558,68.558,0,0,1,.348-7.146h-5.066l-9.336,22.1-9.926-22.1H21970a69.2,69.2,0,0,1,.313,7.146v13.462A69.2,69.2,0,0,1,21970,7603.755Z" transform="translate(-21870.918 -7576)" fill="#f2f1ef" fill-rule="evenodd"/>
      <path id="Path_2" data-name="Path 2" d="M1624.423,7599.8l-6.879-23.8h-5.872a3.371,3.371,0,0,1,.039,2.218l-6.344,21.9a17.884,17.884,0,0,1-1.367,3.644l1.226,0a15.833,15.833,0,0,1,.827-3.673l1.839-6.315h9.545l1.766,6.033a15.058,15.058,0,0,1,.793,3.96l6.052,0A16.08,16.08,0,0,1,1624.423,7599.8Zm-16.351-6.694,4.573-15.89,4.612,15.89Z" transform="translate(-1604 -7576)" fill="#f2f1ef" fill-rule="evenodd"/>
      <path id="Path_3" data-name="Path 3" d="M16748,7576a69.2,69.2,0,0,1,.311,7.146v8.815c0,9.92,4.617,12.488,11.453,12.488,6.348,0,9.365-3.4,9.365-12.488v-8.815a69.2,69.2,0,0,1,.311-7.146h-1.283a69.187,69.187,0,0,1,.316,7.146v8.815c0,8.5-2.676,11.447-7.912,11.447-5.482,0-7.5-3.293-7.5-11.447v-8.815a69.2,69.2,0,0,1,.311-7.146Z" transform="translate(-16674.324 -7576)" fill="#f2f1ef" fill-rule="evenodd"/>
      <path id="Path_4" data-name="Path 4" d="M11818.01,7597.235a9.535,9.535,0,0,0-7.667-6.422c5.206-.379,9.331-2.116,9.331-7.355,0-6.14-5.652-7.458-12.108-7.458H11800a68.915,68.915,0,0,1,.316,7.146v13.462a69.077,69.077,0,0,1-.316,7.151l5.381,0a68.935,68.935,0,0,1-.312-7.146v-5.687h.968c2.769,0,4.433.652,5.975,3.8a35.52,35.52,0,0,1,1.439,3.722,43.224,43.224,0,0,1,1.523,5.308h6.436A24.472,24.472,0,0,1,11818.01,7597.235Zm-12.94-6.977v-13.6h2.462c3.779,0,7.321,1.391,7.321,6.8s-3.542,6.8-7.321,6.8Z" transform="translate(-11750.396 -7576)" fill="#f2f1ef" fill-rule="evenodd"/>
      <path id="Path_5" data-name="Path 5" d="M6579,7576a68.931,68.931,0,0,1,.311,7.146v8.815c0,9.92,4.617,12.488,11.453,12.488,6.349,0,9.365-3.4,9.365-12.488v-8.815a68.781,68.781,0,0,1,.316-7.146h-1.284a68.931,68.931,0,0,1,.311,7.146v8.815c0,8.5-2.671,11.447-7.91,11.447-5.483,0-7.5-3.293-7.5-11.447v-8.815a68.78,68.78,0,0,1,.316-7.146Z" transform="translate(-6554.796 -7576)" fill="#f2f1ef" fill-rule="evenodd"/>
    </g>
  </g>
</svg>
